<?xml version="1.0" encoding="UTF-8"?>
<svg id="Layer_1" xmlns="http://www.w3.org/2000/svg" xmlns:xlink="http://www.w3.org/1999/xlink" version="1.1" viewBox="0 0 754 85.5">
  <!-- Generator: Adobe Illustrator 29.3.1, SVG Export Plug-In . SVG Version: 2.1.0 Build 151)  -->
  <defs>
    <style>
      .st0 {
        fill: #102f6f;
        fill-opacity: .9;
      }

      .st1 {
        fill: #95bf47;
      }

      .st2 {
        fill: #e23c25;
      }

      .st3 {
        fill: #fff;
      }

      .st4 {
        fill: #5e8e3e;
      }
    </style>
  </defs>
  <g>
    <path class="st1" d="M67.8,18.2c0-.4-.4-.6-.7-.6s-5.8-.1-5.8-.1c0,0-4.7-4.5-5.1-5-.4-.4-1.3-.3-1.7-.2,0,0-.9.3-2.4.7-.2-.8-.6-1.7-1.1-2.7-1.6-3.1-4.1-4.8-7-4.8h-.6c0,0-.2-.2-.3-.3-1.3-1.3-2.9-2-4.9-2-3.8,0-7.5,2.9-10.6,7.7-2.1,3.4-3.8,7.7-4.3,11-4.3,1.3-7.3,2.3-7.5,2.3q-2.2.7-2.5,2.8c-.1,1.6-5.8,45.8-5.8,45.8l48,8.3,20.8-5.2s-8.5-57.3-8.6-57.7h0ZM49.8,13.8c-1.1.3-2.4.7-3.7,1.2,0-1.9-.3-4.6-1.1-6.8,2.9.4,4.3,3.7,4.8,5.7h0ZM43.6,15.7c-2.5.8-5.3,1.6-8,2.5.8-3,2.2-5.9,4-7.8.7-.7,1.6-1.5,2.7-2,1.1,2.2,1.3,5.3,1.3,7.3ZM38.4,5.7c.9,0,1.6.2,2.2.6-1,.5-2,1.3-2.9,2.3-2.4,2.6-4.3,6.6-5,10.4-2.3.7-4.5,1.4-6.6,2,1.3-6.1,6.4-15.2,12.2-15.4h.1Z"/>
    <g>
      <path class="st4" d="M67.2,17.6c-.3,0-5.8-.1-5.8-.1,0,0-4.7-4.5-5.1-5-.2-.2-.4-.3-.6-.3v68.9l20.8-5.2s-8.5-57.3-8.5-57.7c0-.4-.4-.6-.7-.6h-.1Z"/>
      <path class="st3" d="M44.1,28.3l-2.4,9s-2.7-1.2-5.9-1c-4.7.3-4.7,3.3-4.7,4,.3,4,10.9,4.9,11.5,14.4.4,7.5-3.9,12.6-10.3,12.9-7.6.4-11.8-4.1-11.8-4.1l1.6-6.9s4.3,3.2,7.6,3c2.2,0,3-2,2.9-3.2-.3-5.3-9-4.9-9.5-13.6-.4-7.3,4.3-14.6,14.9-15.3,4.1-.3,6.2.8,6.2.8h-.1Z"/>
    </g>
  </g>
  <g>
    <path id="s1" d="M104.6,47.5c-2.4-1.3-3.6-2.4-3.6-3.9s1.7-3.1,4.4-3.1,5.9,1.3,5.9,1.3l2.2-6.7s-2-1.6-8-1.6-14.1,4.8-14.1,11.4,2.7,6.7,6.3,8.7c2.9,1.6,3.9,2.8,3.9,4.5s-1.5,3.3-4.1,3.3c-4,0-7.8-2.1-7.8-2.1l-2.4,6.7s3.5,2.4,9.4,2.4c8.5,0,14.7-4.2,14.7-11.8s-3.1-7-6.8-9.1Z"/>
    <path id="h1" d="M138.5,33.3c-4.2,0-7.5,2-10,5h-.1l3.6-19.1h-9.5l-9.2,48.5h9.5l3.1-16.6c1.2-6.3,4.5-10.1,7.5-10.1s3,1.5,3,3.5-.1,2.9-.4,4.2l-3.6,19h9.5l3.7-19.6c.4-2.1.7-4.5.7-6.2,0-5.4-2.7-8.6-7.7-8.6h0Z"/>
    <path id="o1" d="M167.8,33.3c-11.4,0-19,10.3-19,21.8s4.5,13.3,13.1,13.3,18.8-10,18.8-21.8-3.9-13.3-12.8-13.3h-.1ZM163.1,61.2c-3.3,0-4.6-2.7-4.6-6.2,0-5.4,2.8-14.3,8-14.3s4.5,2.9,4.5,5.7c0,5.8-2.9,14.8-7.8,14.8h0Z"/>
    <path id="p1" d="M204.9,33.3c-6.4,0-10,5.7-10,5.7h-.1l.6-5.1h-8.4c-.4,3.4-1.2,8.7-1.9,12.6l-6.6,34.7h9.5l2.6-14.1h.2s2,1.2,5.5,1.2c11.2,0,18.4-11.4,18.4-23s-2.9-12.1-9.8-12.1h0ZM195.8,61.3c-2.5,0-3.9-1.4-3.9-1.4l1.6-8.9c1.1-5.9,4.2-9.9,7.5-9.9s3.8,2.7,3.8,5.2c0,6.2-3.6,14.9-9,14.9h0Z"/>
    <path id="dot1" d="M228.3,19.7c-3,0-5.4,2.4-5.4,5.5s1.8,4.8,4.5,4.8h.1c3,0,5.5-2,5.5-5.5s-1.8-4.8-4.7-4.8h0Z"/>
    <polygon id="i1" points="215 67.7 224.5 67.7 230.9 34.1 221.4 34.1 215 67.7"/>
    <path id="f1" d="M255.1,34h-6.6l.3-1.6c.6-3.3,2.5-6.1,5.7-6.1s3,.5,3,.5l1.8-7.5s-1.6-.8-5.2-.8-6.7,1-9.3,3.1c-3.3,2.7-4.8,6.7-5.5,10.8l-.3,1.6h-4.4l-1.4,7.2h4.4l-5,26.6h9.5l5-26.6h6.6l1.3-7.2h.1Z"/>
    <path id="y1" d="M277.9,34.1s-5.9,15-8.6,23.1h-.1c-.2-2.6-2.4-23.1-2.4-23.1h-10l5.7,30.9c.1.7,0,1.1-.2,1.6-1.1,2.1-3,4.2-5.2,5.7-1.8,1.3-3.8,2.1-5.4,2.7l2.6,8.1c1.9-.4,5.9-2,9.3-5.2,4.3-4,8.3-10.3,12.4-18.8l11.6-24.9h-9.9.2Z"/>
  </g>
  <g>
    <path id="path49901" class="st0" d="M483.9,30.2h11v6.1h-11v23.9c0,3,.5,5.1,1.6,6.3,1.1,1.2,2.6,1.7,4.4,1.7s1.8,0,2.6-.4c.9-.3,1.6-.6,2.2-1l1.4,5.7c-2.2,1.3-4.7,2-7.2,2-4.1,0-7.1-1.1-9.2-3.4-2-2.3-3-6.1-3-11.4V18.6l7.1-1.2v12.9h.1Z"/>
    <path id="path49921" class="st0" d="M522.8,37.6c-1.7-.8-3.8-1.2-6-1.2s-3.9.3-5.7,1.1v37.1h-7.1v-41.6c1.6-.8,3.4-1.4,5.4-1.9,2.1-.6,4.4-.8,6.9-.8s2.6,0,4,.2,2.6.4,3.7.9l-1.2,6.1h0Z"/>
    <path id="path49941" class="st0" d="M530.8,31.1c1.5-.6,3-1.1,4.5-1.4,1.6-.4,3.3-.6,5.2-.6,3.9,0,7,1.2,9.4,3.7,2.4,2.4,3.7,6.1,3.7,11.2v28.8c-2,.6-4,1-6.1,1.3-2,.3-4,.5-6.1.5s-3.9-.2-5.6-.7c-1.7-.5-3.3-1.3-4.5-2.4-1.3-1.1-2.3-2.5-3.1-4.2s-1.2-3.8-1.2-6.2.3-4.2,1-5.9,1.7-3.1,2.9-4.2c1.2-1.2,2.6-2,4.3-2.6,1.6-.6,3.4-.9,5.4-.9s3.8.2,6.1.7v-4c0-3.2-.6-5.4-1.9-6.7-1.2-1.3-3-1.9-5.3-1.9s-2.5,0-3.7.4c-1.1.2-2.3.6-3.5,1.2l-1.5-6.1h0ZM534.2,61.1c0,2.5.7,4.4,2,5.6s3.2,1.8,5.6,1.8,3.1-.2,4.9-.6v-13.8c-1.6-.4-3.3-.7-4.9-.7s-2,0-3,.4c-1,.2-1.7.6-2.5,1.2-.7.6-1.2,1.3-1.6,2.3-.4,1-.6,2.1-.6,3.7h0Z"/>
    <path id="path49961" class="st0" d="M579.5,74.6c-3,0-5.4-.6-7.5-1.7-2-1.2-3.6-2.8-4.9-4.7-1.2-2-2.1-4.4-2.6-7.2s-.7-5.8-.7-9c0-7.2,1.3-12.8,3.9-16.8,2.6-4.1,6.6-6.1,11.9-6.1s3,.2,4.3.6,2.5.9,3.5,1.5l-1.8,5.9c-1.7-1.1-3.6-1.6-5.7-1.6s-5.2,1.3-6.6,4c-1.4,2.7-2.1,6.9-2.1,12.6s0,4.6.4,6.6c.3,2,.7,3.7,1.4,5.1.7,1.5,1.6,2.6,2.8,3.4s2.6,1.2,4.4,1.2,2.3,0,3.3-.4,1.9-.7,2.8-1.2l1.6,5.6c-.9.6-2.1,1.2-3.5,1.6-1.5.5-3,.7-4.7.7h-.2Z"/>
    <path id="path49981" class="st0" d="M600.1,53.9c0,2.1.2,4,.6,5.8.3,1.7.8,3.3,1.6,4.5.8,1.3,1.7,2.2,3,3,1.3.7,2.9,1.1,4.8,1.1s3.1-.2,4.4-.7c1.4-.5,2.4-.9,3-1.2l1.3,5.7c-.7.5-1.9,1-3.7,1.6-1.6.6-3.7.9-6,.9s-5.6-.6-7.7-1.6c-2-1.1-3.7-2.6-5.1-4.7-1.3-2-2.2-4.4-2.8-7.1-.6-2.8-.8-5.8-.8-9.1,0-8,1.3-13.9,4-17.6,2.6-3.7,6.2-5.6,10.5-5.6s8.4,1.9,10.4,5.6,3.1,8.9,3.1,15.6v3.8h-20.7.1ZM607.3,35.1c-2.4,0-4.1,1.2-5.2,3.5-1.1,2.4-1.7,5.6-1.9,9.5h13.1c0-4-.4-7.2-1.2-9.5s-2.4-3.5-4.8-3.5h0Z"/>
    <path id="path50001" class="st0" d="M651.5,36.5c-1.2,2-2.6,4.5-4.2,7.3s-3.1,5.7-4.7,8.7c-1.5,2.9-2.9,5.8-4.3,8.7-1.3,2.8-2.4,5.3-3.3,7.4h16.9v6.1h-24.3v-5.1c.9-2.4,2-5.1,3.4-8.1s2.8-6,4.3-8.9c1.6-3,3-5.8,4.5-8.4,1.5-2.7,2.8-4.9,3.8-6.7h-15v-6.1h22.7v5.3h0l.2-.2Z"/>
    <path id="path50021" class="st0" d="M668.3,74.6h-7.1V31.1h7.1v43.5ZM664.7,23.4c-1.3,0-2.4-.4-3.3-1.2-.9-.9-1.3-2-1.3-3.5s.4-2.6,1.3-3.4c1-.9,2-1.3,3.3-1.3s2.4.4,3.3,1.3c1,.8,1.4,2,1.4,3.4s-.4,2.6-1.4,3.5c-.9.8-2,1.2-3.3,1.2Z"/>
    <path id="path50041" class="st0" d="M692.7,74.6c-4.1,0-7-1.1-8.8-3-1.7-1.9-2.6-4.9-2.6-9.1V10.7l7.1-1.2v53.2c0,1.9.4,3.3,1.2,4.2.8.8,2.1,1.4,4,1.7l-.9,6h0Z"/>
    <path id="path50061" class="st0" d="M713,74.6c-4.1,0-7-1.1-8.8-3-1.7-1.9-2.6-4.9-2.6-9.1V10.7l7.1-1.2v53.2c0,1.9.4,3.3,1.2,4.2.8.8,2.1,1.4,4,1.7l-.9,6h0Z"/>
    <path id="path50081" class="st0" d="M722.6,31.1c1.5-.6,3-1.1,4.5-1.4,1.6-.4,3.3-.6,5.2-.6,3.9,0,7,1.2,9.4,3.7,2.4,2.4,3.7,6.1,3.7,11.2v28.8c-2,.6-4,1-6.1,1.3-2,.3-4,.5-6.1.5s-3.9-.2-5.6-.7c-1.7-.5-3.3-1.3-4.5-2.4-1.3-1.1-2.3-2.5-3.1-4.2s-1.2-3.8-1.2-6.2.3-4.2,1-5.9,1.7-3.1,2.9-4.2c1.2-1.2,2.6-2,4.3-2.6,1.6-.6,3.4-.9,5.4-.9s3.8.2,6.1.7v-4c0-3.2-.6-5.4-1.9-6.7-1.2-1.3-3-1.9-5.3-1.9s-2.5,0-3.7.4c-1.1.2-2.3.6-3.5,1.2l-1.5-6.1h0ZM726,61.1c0,2.5.7,4.4,2,5.6s3.2,1.8,5.6,1.8,3.1-.2,4.9-.6v-13.8c-1.6-.4-3.3-.7-4.9-.7s-2,0-3,.4c-1,.2-1.7.6-2.5,1.2-.7.6-1.2,1.3-1.6,2.3-.4,1-.6,2.1-.6,3.7h0Z"/>
  </g>
  <g>
    <path class="st2" d="M321.9,30.5h-5.2v31.7h14.9v-4.6h-9.7v-27h0Z"/>
    <path class="st2" d="M349.8,44c-.7-1.1-1.6-1.9-2.8-2.5-1.2-.6-2.5-.9-3.6-.9s-3,.3-4.4.9c-1.3.6-2.5,1.4-3.4,2.4-1,1-1.6,2.2-2.2,3.5-.5,1.4-.8,2.8-.8,4.2s.2,2.9.8,4.2c.5,1.4,1.2,2.5,2.2,3.5s2,1.9,3.4,2.4c1.3.6,2.8.9,4.4.9s2.5-.3,3.6-.9c1.2-.6,2.2-1.5,2.8-2.5v2.9h4.9v-21.1h-4.9s0,2.9,0,2.8v.2ZM349.3,54.2c-.3.8-.7,1.5-1.2,2.1s-1.2,1.1-2,1.5-1.6.5-2.5.5-1.8-.2-2.5-.5c-.8-.4-1.4-.9-2-1.5-.5-.6-1-1.3-1.2-2.1-.3-.8-.5-1.6-.5-2.6s.1-1.8.5-2.6c.3-.8.7-1.5,1.2-2.1s1.2-1.1,2-1.4c.8-.4,1.6-.6,2.5-.6s1.8.2,2.5.6c.8.4,1.4.8,2,1.4.5.6,1,1.3,1.2,2.1.3.8.5,1.6.5,2.6s-.2,1.8-.5,2.6Z"/>
    <path class="st2" d="M389.5,44c-.7-1.1-1.6-1.9-2.8-2.5-1.2-.6-2.4-.9-3.7-.9s-3,.3-4.3.9c-1.3.6-2.5,1.4-3.4,2.4-1,1-1.7,2.2-2.2,3.5-.5,1.4-.8,2.8-.8,4.2s.2,2.9.8,4.2c.5,1.4,1.2,2.5,2.2,3.5s2,1.9,3.4,2.4c1.3.6,2.8.9,4.3.9s2.4-.3,3.7-.9c1.2-.6,2.2-1.5,2.8-2.5v2.9h4.9v-21.1h-4.9s0,2.9,0,2.8v.2ZM389,54.2c-.3.8-.7,1.5-1.2,2.1s-1.2,1.1-1.9,1.5-1.6.5-2.6.5-1.8-.2-2.5-.5c-.8-.4-1.4-.9-2-1.5s-1-1.3-1.2-2.1c-.3-.8-.5-1.6-.5-2.6s.2-1.8.5-2.6.7-1.5,1.2-2.1,1.2-1.1,2-1.4c.8-.4,1.6-.6,2.5-.6s1.8.2,2.6.6c.8.4,1.4.8,1.9,1.4.6.6.9,1.3,1.2,2.1.3.8.4,1.6.4,2.6s-.2,1.8-.4,2.6Z"/>
    <path class="st2" d="M447.9,30.5h-4.9v31.7h4.9v-31.7Z"/>
    <path class="st2" d="M358.5,62.2h4.9v-16.2h8.4v-4.8h-13.2v21.1h0Z"/>
    <path class="st2" d="M413.9,41.1l-6.2,16.1-6.2-16.1h-4.9l8,21.1h6.2l8-21h-4.9Z"/>
    <path class="st2" d="M429.5,40.6c-6,0-10.7,4.9-10.7,11.1s4.6,11.1,11.3,11.1,6.2-1.5,9.2-4.6l-3.3-2.5s-2.5,3.3-6.2,3.3-6.2-3.5-6.2-5.4h16.2c.8-7-3.7-12.9-10.3-12.9h0ZM423.7,49.8c0-.4.6-5.4,5.8-5.4s5.8,4.9,5.9,5.4h-11.7,0Z"/>
  </g>
</svg>