<?xml version="1.0" encoding="UTF-8"?>
<svg id="Layer_1" xmlns="http://www.w3.org/2000/svg" xmlns:xlink="http://www.w3.org/1999/xlink" version="1.1" viewBox="0 0 500 392">
  <!-- Generator: Adobe Illustrator 29.3.1, SVG Export Plug-In . SVG Version: 2.1.0 Build 151)  -->
  <defs>
    <style>
      .st0 {
        fill: #102f6f;
        fill-opacity: .9;
      }

      .st1 {
        fill: #95bf47;
      }

      .st2 {
        fill: #e23c25;
      }

      .st3 {
        fill: #fff;
      }

      .st4 {
        fill: #5e8e3e;
      }
    </style>
  </defs>
  <g>
    <g>
      <path class="st1" d="M107.4,137.6c0-.7-.7-1.1-1.2-1.1s-10.4-.2-10.4-.2c0,0-8.3-8-9.1-8.9-.8-.8-2.4-.6-3-.4,0,0-1.6.5-4.2,1.3-.4-1.4-1.1-3.1-2-4.9-2.9-5.6-7.3-8.6-12.5-8.6h-1.1c-.2-.2-.3-.4-.5-.5-2.3-2.4-5.2-3.6-8.7-3.5-6.7.2-13.4,5.1-18.9,13.7-3.8,6.1-6.7,13.7-7.6,19.6-7.7,2.4-13.1,4.1-13.3,4.1-3.9,1.2-4,1.3-4.5,5C10.2,156,0,234.9,0,234.9l85.6,14.8,37.1-9.2s-15.2-102.3-15.3-103h0ZM75.2,129.7c-2,.6-4.2,1.3-6.6,2.1,0-3.4-.5-8.2-2-12.2,5.1.8,7.6,6.6,8.6,10.1h0ZM64.1,133.1c-4.5,1.4-9.4,2.9-14.3,4.4,1.4-5.3,4-10.5,7.2-14,1.2-1.3,2.9-2.7,4.8-3.5,2,3.9,2.4,9.4,2.3,13.1ZM54.9,115.4c1.6,0,2.9.3,4,1.1-1.8.9-3.6,2.3-5.2,4.1-4.3,4.6-7.6,11.7-8.9,18.6-4.1,1.3-8.1,2.5-11.7,3.6,2.4-10.9,11.5-27.1,21.8-27.4Z"/>
      <g>
        <path class="st4" d="M106.2,136.5c-.5,0-10.4-.2-10.4-.2,0,0-8.3-8-9.1-8.9-.3-.3-.7-.5-1.1-.5v122.9l37.1-9.2s-15.1-102.3-15.2-103c-.2-.7-.8-1.1-1.3-1.1Z"/>
        <path class="st3" d="M65,155.6l-4.3,16.1s-4.8-2.2-10.5-1.8c-8.4.5-8.4,5.8-8.4,7.1.5,7.2,19.4,8.8,20.5,25.7.8,13.3-7,22.4-18.4,23.1-13.6.7-21.1-7.3-21.1-7.3l2.9-12.3s7.6,5.7,13.6,5.3c3.9-.2,5.4-3.5,5.2-5.7-.6-9.4-16-8.8-17-24.3-.8-13,7.7-26.1,26.5-27.3,7.3-.5,11,1.4,11,1.4Z"/>
      </g>
    </g>
    <g>
      <path id="s" d="M172.9,189.9c-4.3-2.3-6.5-4.3-6.5-7s3.1-5.6,7.9-5.6,10.6,2.3,10.6,2.3l3.9-12s-3.6-2.8-14.2-2.8-25.1,8.5-25.1,20.4,4.8,11.9,11.2,15.6c5.2,2.9,7,5,7,8.1s-2.6,5.8-7.4,5.8c-7.1,0-13.9-3.7-13.9-3.7l-4.2,12s6.2,4.2,16.7,4.2c15.2,0,26.2-7.5,26.2-21s-5.6-12.5-12.2-16.3Z"/>
      <path id="h" d="M233.5,164.6c-7.5,0-13.4,3.6-17.9,9h-.2l6.5-34.1h-16.9l-16.5,86.6h16.9l5.6-29.6c2.2-11.2,8-18.1,13.4-18.1s5.3,2.6,5.3,6.3-.2,5.2-.7,7.5l-6.4,33.9h16.9l6.6-35c.7-3.7,1.2-8.1,1.2-11.1,0-9.6-4.9-15.4-13.8-15.4h0Z"/>
      <path id="o" d="M285.7,164.6c-20.4,0-33.9,18.4-33.9,38.9s8.1,23.7,23.3,23.7,33.5-17.9,33.5-38.9c.1-12.1-7-23.7-22.9-23.7h0ZM277.4,214.3c-5.8,0-8.2-4.9-8.2-11.1,0-9.7,5-25.5,14.2-25.5s8,5.2,8,10.2c0,10.4-5.1,26.4-14,26.4h0Z"/>
      <path id="p" d="M352,164.6c-11.4,0-17.9,10.1-17.9,10.1h-.2l1-9.1h-15c-.7,6.1-2.1,15.5-3.4,22.5l-11.8,62h16.9l4.7-25.1h.4s3.5,2.2,9.9,2.2c19.9,0,32.9-20.4,32.9-41s-5.1-21.6-17.5-21.6h0ZM335.8,214.5c-4.4,0-7-2.5-7-2.5l2.8-15.8c2-10.6,7.5-17.6,13.4-17.6s6.8,4.8,6.8,9.3c0,11-6.5,26.6-16,26.6h0Z"/>
      <path id="dot" d="M393.7,140.3c-5.4,0-9.7,4.3-9.7,9.8s3.2,8.5,8,8.5h.2c5.3,0,9.8-3.6,9.9-9.8,0-4.9-3.3-8.5-8.4-8.5Z"/>
      <polygon id="i" points="370 226 386.9 226 398.4 166 381.4 166 370 226"/>
      <path id="f" d="M441.5,165.9h-11.8l.6-2.8c1-5.8,4.4-10.9,10.1-10.9s5.4.9,5.4.9l3.3-13.3s-2.9-1.5-9.2-1.5-12,1.7-16.6,5.6c-5.8,4.9-8.5,12-9.8,19.2l-.5,2.8h-7.9l-2.5,12.8h7.9l-9,47.4h16.9l9-47.4h11.7l2.4-12.8h0Z"/>
      <path id="y" d="M482.3,166s-10.6,26.7-15.3,41.3h-.2c-.3-4.7-4.2-41.3-4.2-41.3h-17.8l10.2,55.1c.2,1.2.1,2-.4,2.8-2,3.8-5.3,7.5-9.2,10.2-3.2,2.3-6.8,3.8-9.6,4.8l4.7,14.4c3.4-.7,10.6-3.6,16.6-9.2,7.7-7.2,14.9-18.4,22.2-33.6l20.7-44.5h-17.7Z"/>
    </g>
  </g>
  <g>
    <path id="path4990" class="st0" d="M20.6,313h19.5v10.9h-19.5v42.6c0,5.3.9,9,2.8,11.2,2,2.1,4.6,3.1,7.8,3.1s3.2-.2,4.7-.7c1.6-.5,2.9-1.1,4-1.8l2.5,10.2c-4,2.4-8.3,3.5-12.8,3.5-7.3,0-12.7-2-16.4-6-3.5-4.1-5.3-10.9-5.3-20.3v-73.4l12.7-2.2v23h0Z"/>
    <path id="path4992" class="st0" d="M89.9,326.1c-3.1-1.4-6.7-2.1-10.6-2.1s-7,.6-10.2,1.9v66.1h-12.7v-74c2.9-1.4,6.1-2.5,9.7-3.4,3.7-1,7.8-1.5,12.2-1.5s4.7.1,7.1.4,4.6.8,6.6,1.6l-2.2,10.9h0Z"/>
    <path id="path4994" class="st0" d="M104,314.6c2.6-1.1,5.3-1.9,8.1-2.5,2.9-.7,5.9-1,9.3-1,6.9,0,12.5,2.2,16.8,6.5,4.3,4.2,6.5,10.9,6.5,19.9v51.3c-3.5,1-7.2,1.8-10.9,2.4-3.6.6-7.2.9-10.8.9s-6.9-.4-10-1.3c-3-.9-5.8-2.3-8.1-4.3-2.3-2-4.1-4.4-5.5-7.4s-2.1-6.7-2.1-11.1.6-7.5,1.8-10.5c1.3-3,3-5.6,5.2-7.5,2.2-2.1,4.7-3.6,7.7-4.6,2.9-1.1,6.1-1.6,9.6-1.6s6.8.4,10.8,1.2v-7.1c0-5.7-1.1-9.7-3.4-11.9-2.2-2.3-5.3-3.4-9.4-3.4s-4.4.2-6.5.7c-2,.4-4.1,1.1-6.3,2.1l-2.7-10.8h0ZM110.1,367.9c0,4.5,1.2,7.9,3.5,10,2.4,2.2,5.7,3.2,10,3.2s5.6-.3,8.7-1v-24.6c-2.9-.8-5.8-1.2-8.7-1.2s-3.6.2-5.3.7c-1.7.4-3.1,1.1-4.4,2.2-1.2,1-2.1,2.4-2.8,4.1-.7,1.7-1,3.8-1,6.5h0Z"/>
    <path id="path4996" class="st0" d="M190.7,392c-5.3,0-9.7-1-13.3-3.1-3.5-2.1-6.4-4.9-8.7-8.4-2.2-3.6-3.7-7.9-4.7-12.8-.9-4.9-1.3-10.3-1.3-16.1,0-12.8,2.3-22.8,6.9-29.9,4.7-7.3,11.8-10.9,21.2-10.9s5.4.3,7.7,1,4.4,1.6,6.3,2.7l-3.2,10.5c-3-2-6.4-2.9-10.2-2.9s-9.2,2.4-11.8,7.2c-2.5,4.8-3.7,12.3-3.7,22.4s.2,8.2.7,11.8c.5,3.5,1.3,6.6,2.5,9.1,1.3,2.6,2.9,4.6,4.9,6,2.1,1.5,4.7,2.2,7.8,2.2s4.1-.2,5.8-.7c1.8-.6,3.4-1.3,5-2.2l2.8,9.9c-1.6,1.1-3.7,2.1-6.3,2.9-2.6.9-5.4,1.3-8.4,1.3Z"/>
    <path id="path4998" class="st0" d="M227.5,355.2c0,3.7.4,7.2,1,10.3.6,3,1.5,5.8,2.8,8.1,1.4,2.3,3.1,4,5.3,5.3,2.3,1.3,5.1,1.9,8.6,1.9s5.5-.4,7.8-1.2c2.5-.9,4.2-1.6,5.3-2.2l2.4,10.2c-1.3.9-3.4,1.8-6.5,2.8-2.9,1.1-6.5,1.6-10.6,1.6s-10-1-13.7-2.9c-3.6-2-6.6-4.7-9-8.3-2.3-3.5-3.9-7.8-4.9-12.7-1-4.9-1.5-10.3-1.5-16.2,0-14.3,2.4-24.7,7.1-31.3,4.7-6.6,11-9.9,18.7-9.9s14.9,3.3,18.6,9.9c3.6,6.6,5.5,15.8,5.5,27.7v3.4c0,1.1,0,2.2-.1,3.4h-36.8ZM240.3,321.6c-4.2,0-7.3,2.1-9.3,6.3-1.9,4.2-3,9.9-3.4,17h23.4c0-7.2-.7-12.8-2.2-17s-4.3-6.3-8.6-6.3h.1Z"/>
    <path id="path5000" class="st0" d="M318.9,324.1c-2.2,3.6-4.6,8-7.4,13s-5.5,10.2-8.3,15.5c-2.7,5.2-5.2,10.4-7.7,15.5-2.4,5-4.3,9.4-5.8,13.1h30.1v10.9h-43.2v-9.1c1.6-4.3,3.6-9.1,6-14.5,2.5-5.3,5-10.6,7.7-15.9,2.8-5.3,5.4-10.3,8-15,2.7-4.8,4.9-8.8,6.8-11.9h-26.7v-10.9h40.4v9.4h.1Z"/>
    <path id="path5002" class="st0" d="M348.8,392h-12.7v-77.4h12.7v77.4ZM342.5,300.9c-2.3,0-4.2-.7-5.9-2.2-1.6-1.6-2.4-3.6-2.4-6.2s.8-4.6,2.4-6c1.7-1.6,3.6-2.4,5.9-2.4s4.2.8,5.8,2.4c1.7,1.5,2.5,3.5,2.5,6s-.8,4.6-2.5,6.2c-1.6,1.5-3.5,2.2-5.8,2.2Z"/>
    <path id="path5004" class="st0" d="M392.3,392c-7.3-.2-12.5-2-15.6-5.3-3.1-3.4-4.7-8.8-4.7-16.2v-92.2l12.7-2.2v94.7c0,3.4.7,5.9,2.1,7.5,1.4,1.5,3.8,2.5,7.2,3.1l-1.6,10.6h-.1Z"/>
    <path id="path5006" class="st0" d="M428.4,392c-7.3-.2-12.5-2-15.6-5.3-3.1-3.4-4.7-8.8-4.7-16.2v-92.2l12.7-2.2v94.7c0,3.4.7,5.9,2.1,7.5,1.4,1.5,3.8,2.5,7.2,3.1l-1.6,10.6h-.1Z"/>
    <path id="path5008" class="st0" d="M445.6,314.6c2.6-1.1,5.3-1.9,8.1-2.5,2.9-.7,5.9-1,9.3-1,6.9,0,12.5,2.2,16.8,6.5,4.3,4.2,6.5,10.9,6.5,19.9v51.3c-3.5,1-7.2,1.8-10.9,2.4-3.6.6-7.2.9-10.8.9s-6.9-.4-10-1.3c-3-.9-5.8-2.3-8.1-4.3-2.3-2-4.1-4.4-5.5-7.4s-2.1-6.7-2.1-11.1.6-7.5,1.8-10.5c1.3-3,3-5.6,5.2-7.5,2.2-2.1,4.7-3.6,7.7-4.6,2.9-1.1,6.1-1.6,9.6-1.6s6.8.4,10.8,1.2v-7.1c0-5.7-1.1-9.7-3.4-11.9-2.2-2.3-5.3-3.4-9.4-3.4s-4.4.2-6.5.7c-2,.4-4.1,1.1-6.3,2.1l-2.7-10.8h-.1ZM451.6,367.9c0,4.5,1.2,7.9,3.5,10s5.7,3.2,10,3.2,5.6-.3,8.7-1v-24.6c-2.9-.8-5.8-1.2-8.7-1.2s-3.6.2-5.3.7c-1.7.4-3.1,1.1-4.4,2.2-1.2,1-2.1,2.4-2.8,4.1-.7,1.7-1,3.8-1,6.5h0Z"/>
  </g>
  <g>
    <path class="st2" d="M11,1H.7v63.3h29.7v-9.3H11V1Z"/>
    <path class="st2" d="M66.7,27.9c-1.3-2.1-3.2-3.8-5.6-5-2.4-1.2-4.9-1.8-7.3-1.8s-6.1.6-8.7,1.8c-2.6,1.2-4.9,2.8-6.8,4.8-1.9,2-3.3,4.4-4.4,7.1-1,2.7-1.6,5.5-1.6,8.5s.5,5.8,1.6,8.5c1,2.7,2.5,5,4.4,7s4.1,3.7,6.8,4.8c2.6,1.2,5.5,1.8,8.7,1.8s4.9-.6,7.3-1.8c2.4-1.2,4.3-2.9,5.6-5v5.7h9.8V22.2h-9.8s0,5.7,0,5.7ZM65.8,48.4c-.6,1.6-1.4,3-2.5,4.2s-2.4,2.2-3.9,2.9-3.2,1.1-5.1,1.1-3.5-.4-5-1.1c-1.5-.7-2.8-1.7-3.9-2.9-1.1-1.2-1.9-2.6-2.5-4.2-.6-1.6-.9-3.3-.9-5.2s.3-3.5.9-5.2c.6-1.6,1.4-3,2.5-4.2s2.4-2.2,3.9-2.9c1.5-.7,3.2-1.1,5-1.1s3.5.4,5.1,1.1c1.5.7,2.8,1.7,3.9,2.9,1.1,1.2,1.9,2.6,2.5,4.2.6,1.6.9,3.3.9,5.2s-.3,3.5-.9,5.2Z"/>
    <path class="st2" d="M146.1,27.9c-1.3-2.1-3.2-3.8-5.6-5-2.4-1.2-4.9-1.8-7.3-1.8s-6.1.6-8.7,1.8c-2.6,1.2-4.9,2.8-6.8,4.8-1.9,2-3.3,4.4-4.4,7.1-1,2.7-1.6,5.5-1.6,8.5s.5,5.8,1.6,8.5c1,2.7,2.5,5,4.4,7s4.1,3.7,6.8,4.8c2.6,1.2,5.5,1.8,8.7,1.8s4.9-.6,7.3-1.8c2.4-1.2,4.3-2.9,5.6-5v5.7h9.8V22.2h-9.8s0,5.7,0,5.7ZM145.2,48.4c-.6,1.6-1.4,3-2.5,4.2s-2.4,2.2-3.9,2.9-3.2,1.1-5.1,1.1-3.5-.4-5-1.1c-1.5-.7-2.8-1.7-3.9-2.9s-1.9-2.6-2.5-4.2c-.6-1.6-.9-3.3-.9-5.2s.3-3.5.9-5.2c.6-1.6,1.4-3,2.5-4.2s2.4-2.2,3.9-2.9c1.5-.7,3.2-1.1,5-1.1s3.5.4,5.1,1.1c1.5.7,2.8,1.7,3.9,2.9,1.1,1.2,1.9,2.6,2.5,4.2.6,1.6.9,3.3.9,5.2s-.3,3.5-.9,5.2Z"/>
    <path class="st2" d="M263,1h-9.8v63.3h9.8V1Z"/>
    <path class="st2" d="M84.2,64.3h9.8V31.9h16.8v-9.7h-26.5v42.1h-.1Z"/>
    <path class="st2" d="M195,22.2l-12.3,32.2-12.3-32.2h-9.9l16,42.1h12.3l16-42.1h-9.9,0Z"/>
    <path class="st2" d="M226.2,21.1c-12,0-21.4,9.9-21.4,22.1s9.2,22.1,22.7,22.1,12.4-2.9,18.3-9.3l-6.6-5.1s-5,6.6-12.4,6.6-12.3-7-12.3-10.7h32.4c1.7-13.9-7.4-25.8-20.7-25.8h0ZM214.5,39.6c0-.8,1.2-10.7,11.6-10.7s11.7,9.8,11.8,10.7h-23.4Z"/>
  </g>
</svg>