<?xml version="1.0" encoding="UTF-8"?>
<svg id="Layer_1" xmlns="http://www.w3.org/2000/svg" xmlns:xlink="http://www.w3.org/1999/xlink" version="1.1" viewBox="0 0 754 85.5">
  <!-- Generator: Adobe Illustrator 29.3.1, SVG Export Plug-In . SVG Version: 2.1.0 Build 151)  -->
  <defs>
    <style>
      .st0 {
        fill: #102f6f;
      }

      .st0, .st1 {
        fill-opacity: .9;
      }

      .st2 {
        fill: #95bf47;
      }

      .st3 {
        fill: #e23c25;
      }

      .st4, .st1 {
        fill: #fff;
      }

      .st5 {
        fill: #5e8e3e;
      }
    </style>
  </defs>
  <g>
    <g>
      <path class="st2" d="M979.4,528.1c0-.7-.7-1.1-1.2-1.1s-10.4-.2-10.4-.2c0,0-8.3-8-9.1-8.9-.8-.8-2.4-.6-3-.4,0,0-1.6.5-4.2,1.3-.4-1.4-1.1-3.1-2-4.9-2.9-5.6-7.3-8.6-12.5-8.6h-1.1c-.2-.2-.3-.4-.5-.5-2.3-2.4-5.2-3.6-8.7-3.5-6.7.2-13.4,5.1-18.9,13.7-3.8,6.1-6.7,13.7-7.6,19.6-7.7,2.4-13.1,4.1-13.3,4.1-3.9,1.2-4,1.3-4.5,5-.2,2.8-10.4,81.7-10.4,81.7l85.6,14.8,37.1-9.2s-15.2-102.3-15.3-103h0ZM947.2,520.2c-2,.6-4.2,1.3-6.6,2.1,0-3.4-.5-8.2-2-12.2,5.1.8,7.6,6.6,8.6,10.1h0ZM936.1,523.6c-4.5,1.4-9.4,2.9-14.3,4.4,1.4-5.3,4-10.5,7.2-14,1.2-1.3,2.9-2.7,4.8-3.5,2,3.9,2.4,9.4,2.3,13.1ZM926.9,505.9c1.6,0,2.9.3,4,1.1-1.8.9-3.6,2.3-5.2,4.1-4.3,4.6-7.6,11.7-8.9,18.6-4.1,1.3-8.1,2.5-11.7,3.6,2.4-10.9,11.5-27.1,21.8-27.4Z"/>
      <g>
        <path class="st5" d="M978.2,527c-.5,0-10.4-.2-10.4-.2,0,0-8.3-8-9.1-8.9-.3-.3-.7-.5-1.1-.5v122.9l37.1-9.2s-15.1-102.3-15.2-103c-.2-.7-.8-1.1-1.3-1.1Z"/>
        <path class="st4" d="M937,546.1l-4.3,16.1s-4.8-2.2-10.5-1.8c-8.4.5-8.4,5.8-8.4,7.1.5,7.2,19.4,8.8,20.5,25.7.8,13.3-7,22.4-18.4,23.1-13.6.7-21.1-7.3-21.1-7.3l2.9-12.3s7.6,5.7,13.6,5.3c3.9-.2,5.4-3.5,5.2-5.7-.6-9.4-16-8.8-17-24.3-.8-13,7.7-26.1,26.5-27.3,7.3-.5,11,1.4,11,1.4Z"/>
      </g>
    </g>
    <g>
      <path id="s" d="M1044.9,580.4c-4.3-2.3-6.5-4.3-6.5-7s3.1-5.6,7.9-5.6,10.6,2.3,10.6,2.3l3.9-12s-3.6-2.8-14.2-2.8-25.1,8.5-25.1,20.4,4.8,11.9,11.2,15.6c5.2,2.9,7,5,7,8.1s-2.6,5.8-7.4,5.8c-7.1,0-13.9-3.7-13.9-3.7l-4.2,12s6.2,4.2,16.7,4.2c15.2,0,26.2-7.5,26.2-21s-5.6-12.5-12.2-16.3Z"/>
      <path id="h" d="M1105.5,555.1c-7.5,0-13.4,3.6-17.9,9h-.2l6.5-34.1h-16.9l-16.5,86.6h16.9l5.6-29.6c2.2-11.2,8-18.1,13.4-18.1s5.3,2.6,5.3,6.3-.2,5.2-.7,7.5l-6.4,33.9h16.9l6.6-35c.7-3.7,1.2-8.1,1.2-11.1,0-9.6-4.9-15.4-13.8-15.4h0Z"/>
      <path id="o" d="M1157.7,555.1c-20.4,0-33.9,18.4-33.9,38.9s8.1,23.7,23.3,23.7,33.5-17.9,33.5-38.9c.1-12.1-7-23.7-22.9-23.7h0ZM1149.4,604.8c-5.8,0-8.2-4.9-8.2-11.1,0-9.7,5-25.5,14.2-25.5s8,5.2,8,10.2c0,10.4-5.1,26.4-14,26.4h0Z"/>
      <path id="p" d="M1224,555.1c-11.4,0-17.9,10.1-17.9,10.1h-.2l1-9.1h-15c-.7,6.1-2.1,15.5-3.4,22.5l-11.8,62h16.9l4.7-25.1h.4s3.5,2.2,9.9,2.2c19.9,0,32.9-20.4,32.9-41s-5.1-21.6-17.5-21.6h0ZM1207.8,605c-4.4,0-7-2.5-7-2.5l2.8-15.8c2-10.6,7.5-17.6,13.4-17.6s6.8,4.8,6.8,9.3c0,11-6.5,26.6-16,26.6h0Z"/>
      <path id="dot" d="M1265.7,530.8c-5.4,0-9.7,4.3-9.7,9.8s3.2,8.5,8,8.5h.2c5.3,0,9.8-3.6,9.9-9.8,0-4.9-3.3-8.5-8.4-8.5Z"/>
      <polygon id="i" points="1242 616.5 1258.9 616.5 1270.4 556.5 1253.4 556.5 1242 616.5"/>
      <path id="f" d="M1313.5,556.4h-11.8l.6-2.8c1-5.8,4.4-10.9,10.1-10.9s5.4.9,5.4.9l3.3-13.3s-2.9-1.5-9.2-1.5-12,1.7-16.6,5.6c-5.8,4.9-8.5,12-9.8,19.2l-.5,2.8h-7.9l-2.5,12.8h7.9l-9,47.4h16.9l9-47.4h11.7l2.4-12.8h0Z"/>
      <path id="y" d="M1354.3,556.5s-10.6,26.7-15.3,41.3h-.2c-.3-4.7-4.2-41.3-4.2-41.3h-17.8l10.2,55.1c.2,1.2.1,2-.4,2.8-2,3.8-5.3,7.5-9.2,10.2-3.2,2.3-6.8,3.8-9.6,4.8l4.7,14.4c3.4-.7,10.6-3.6,16.6-9.2,7.7-7.2,14.9-18.4,22.2-33.6l20.7-44.5h-17.7Z"/>
    </g>
  </g>
  <g>
    <path id="path4990" class="st0" d="M892.6,703.5h19.5v10.9h-19.5v42.6c0,5.3.9,9,2.8,11.2,2,2.1,4.6,3.1,7.8,3.1s3.2-.2,4.7-.7c1.6-.5,2.9-1.1,4-1.8l2.5,10.2c-4,2.4-8.3,3.5-12.8,3.5-7.3,0-12.7-2-16.4-6-3.5-4.1-5.3-10.9-5.3-20.3v-73.4l12.7-2.2v23h0Z"/>
    <path id="path4992" class="st0" d="M961.9,716.6c-3.1-1.4-6.7-2.1-10.6-2.1s-7,.6-10.2,1.9v66.1h-12.7v-74c2.9-1.4,6.1-2.5,9.7-3.4,3.7-1,7.8-1.5,12.2-1.5s4.7.1,7.1.4,4.6.8,6.6,1.6l-2.2,10.9h0Z"/>
    <path id="path4994" class="st0" d="M976,705.1c2.6-1.1,5.3-1.9,8.1-2.5,2.9-.7,5.9-1,9.3-1,6.9,0,12.5,2.2,16.8,6.5,4.3,4.2,6.5,10.9,6.5,19.9v51.3c-3.5,1-7.2,1.8-10.9,2.4-3.6.6-7.2.9-10.8.9s-6.9-.4-10-1.3c-3-.9-5.8-2.3-8.1-4.3-2.3-2-4.1-4.4-5.5-7.4s-2.1-6.7-2.1-11.1.6-7.5,1.8-10.5c1.3-3,3-5.6,5.2-7.5,2.2-2.1,4.7-3.6,7.7-4.6,2.9-1.1,6.1-1.6,9.6-1.6s6.8.4,10.8,1.2v-7.1c0-5.7-1.1-9.7-3.4-11.9-2.2-2.3-5.3-3.4-9.4-3.4s-4.4.2-6.5.7c-2,.4-4.1,1.1-6.3,2.1l-2.7-10.8h0ZM982.1,758.4c0,4.5,1.2,7.9,3.5,10,2.4,2.2,5.7,3.2,10,3.2s5.6-.3,8.7-1v-24.6c-2.9-.8-5.8-1.2-8.7-1.2s-3.6.2-5.3.7c-1.7.4-3.1,1.1-4.4,2.2-1.2,1-2.1,2.4-2.8,4.1-.7,1.7-1,3.8-1,6.5h0Z"/>
    <path id="path4996" class="st0" d="M1062.7,782.5c-5.3,0-9.7-1-13.3-3.1-3.5-2.1-6.4-4.9-8.7-8.4-2.2-3.6-3.7-7.9-4.7-12.8-.9-4.9-1.3-10.3-1.3-16.1,0-12.8,2.3-22.8,6.9-29.9,4.7-7.3,11.8-10.9,21.2-10.9s5.4.3,7.7,1,4.4,1.6,6.3,2.7l-3.2,10.5c-3-2-6.4-2.9-10.2-2.9s-9.2,2.4-11.8,7.2c-2.5,4.8-3.7,12.3-3.7,22.4s.2,8.2.7,11.8c.5,3.5,1.3,6.6,2.5,9.1,1.3,2.6,2.9,4.6,4.9,6,2.1,1.5,4.7,2.2,7.8,2.2s4.1-.2,5.8-.7c1.8-.6,3.4-1.3,5-2.2l2.8,9.9c-1.6,1.1-3.7,2.1-6.3,2.9-2.6.9-5.4,1.3-8.4,1.3Z"/>
    <path id="path4998" class="st0" d="M1099.5,745.7c0,3.7.4,7.2,1,10.3.6,3,1.5,5.8,2.8,8.1,1.4,2.3,3.1,4,5.3,5.3,2.3,1.3,5.1,1.9,8.6,1.9s5.5-.4,7.8-1.2c2.5-.9,4.2-1.6,5.3-2.2l2.4,10.2c-1.3.9-3.4,1.8-6.5,2.8-2.9,1.1-6.5,1.6-10.6,1.6s-10-1-13.7-2.9c-3.6-2-6.6-4.7-9-8.3-2.3-3.5-3.9-7.8-4.9-12.7-1-4.9-1.5-10.3-1.5-16.2,0-14.3,2.4-24.7,7.1-31.3,4.7-6.6,11-9.9,18.7-9.9s14.9,3.3,18.6,9.9c3.6,6.6,5.5,15.8,5.5,27.7v3.4c0,1.1,0,2.2-.1,3.4h-36.8ZM1112.3,712.1c-4.2,0-7.3,2.1-9.3,6.3-1.9,4.2-3,9.9-3.4,17h23.4c0-7.2-.7-12.8-2.2-17s-4.3-6.3-8.6-6.3h.1Z"/>
    <path id="path5000" class="st0" d="M1190.9,714.6c-2.2,3.6-4.6,8-7.4,13s-5.5,10.2-8.3,15.5c-2.7,5.2-5.2,10.4-7.7,15.5-2.4,5-4.3,9.4-5.8,13.1h30.1v10.9h-43.2v-9.1c1.6-4.3,3.6-9.1,6-14.5,2.5-5.3,5-10.6,7.7-15.9,2.8-5.3,5.4-10.3,8-15,2.7-4.8,4.9-8.8,6.8-11.9h-26.7v-10.9h40.4v9.4h.1Z"/>
    <path id="path5002" class="st0" d="M1220.8,782.5h-12.7v-77.4h12.7v77.4ZM1214.5,691.4c-2.3,0-4.2-.7-5.9-2.2-1.6-1.6-2.4-3.6-2.4-6.2s.8-4.6,2.4-6c1.7-1.6,3.6-2.4,5.9-2.4s4.2.8,5.8,2.4c1.7,1.5,2.5,3.5,2.5,6s-.8,4.6-2.5,6.2c-1.6,1.5-3.5,2.2-5.8,2.2Z"/>
    <path id="path5004" class="st0" d="M1264.3,782.5c-7.3-.2-12.5-2-15.6-5.3-3.1-3.4-4.7-8.8-4.7-16.2v-92.2l12.7-2.2v94.7c0,3.4.7,5.9,2.1,7.5,1.4,1.5,3.8,2.5,7.2,3.1l-1.6,10.6h-.1Z"/>
    <path id="path5006" class="st0" d="M1300.4,782.5c-7.3-.2-12.5-2-15.6-5.3-3.1-3.4-4.7-8.8-4.7-16.2v-92.2l12.7-2.2v94.7c0,3.4.7,5.9,2.1,7.5,1.4,1.5,3.8,2.5,7.2,3.1l-1.6,10.6h-.1Z"/>
    <path id="path5008" class="st0" d="M1317.6,705.1c2.6-1.1,5.3-1.9,8.1-2.5,2.9-.7,5.9-1,9.3-1,6.9,0,12.5,2.2,16.8,6.5,4.3,4.2,6.5,10.9,6.5,19.9v51.3c-3.5,1-7.2,1.8-10.9,2.4-3.6.6-7.2.9-10.8.9s-6.9-.4-10-1.3c-3-.9-5.8-2.3-8.1-4.3-2.3-2-4.1-4.4-5.5-7.4s-2.1-6.7-2.1-11.1.6-7.5,1.8-10.5c1.3-3,3-5.6,5.2-7.5,2.2-2.1,4.7-3.6,7.7-4.6,2.9-1.1,6.1-1.6,9.6-1.6s6.8.4,10.8,1.2v-7.1c0-5.7-1.1-9.7-3.4-11.9-2.2-2.3-5.3-3.4-9.4-3.4s-4.4.2-6.5.7c-2,.4-4.1,1.1-6.3,2.1l-2.7-10.8h-.1ZM1323.6,758.4c0,4.5,1.2,7.9,3.5,10s5.7,3.2,10,3.2,5.6-.3,8.7-1v-24.6c-2.9-.8-5.8-1.2-8.7-1.2s-3.6.2-5.3.7c-1.7.4-3.1,1.1-4.4,2.2-1.2,1-2.1,2.4-2.8,4.1-.7,1.7-1,3.8-1,6.5h0Z"/>
  </g>
  <g>
    <path class="st3" d="M883,391.5h-10.3v63.3h29.7v-9.3h-19.4v-54Z"/>
    <path class="st3" d="M938.7,418.4c-1.3-2.1-3.2-3.8-5.6-5-2.4-1.2-4.9-1.8-7.3-1.8s-6.1.6-8.7,1.8c-2.6,1.2-4.9,2.8-6.8,4.8-1.9,2-3.3,4.4-4.4,7.1-1,2.7-1.6,5.5-1.6,8.5s.5,5.8,1.6,8.5c1,2.7,2.5,5,4.4,7s4.1,3.7,6.8,4.8c2.6,1.2,5.5,1.8,8.7,1.8s4.9-.6,7.3-1.8c2.4-1.2,4.3-2.9,5.6-5v5.7h9.8v-42.1h-9.8s0,5.7,0,5.7ZM937.8,438.9c-.6,1.6-1.4,3-2.5,4.2s-2.4,2.2-3.9,2.9-3.2,1.1-5.1,1.1-3.5-.4-5-1.1c-1.5-.7-2.8-1.7-3.9-2.9-1.1-1.2-1.9-2.6-2.5-4.2-.6-1.6-.9-3.3-.9-5.2s.3-3.5.9-5.2c.6-1.6,1.4-3,2.5-4.2s2.4-2.2,3.9-2.9c1.5-.7,3.2-1.1,5-1.1s3.5.4,5.1,1.1c1.5.7,2.8,1.7,3.9,2.9,1.1,1.2,1.9,2.6,2.5,4.2.6,1.6.9,3.3.9,5.2s-.3,3.5-.9,5.2Z"/>
    <path class="st3" d="M1018.1,418.4c-1.3-2.1-3.2-3.8-5.6-5-2.4-1.2-4.9-1.8-7.3-1.8s-6.1.6-8.7,1.8c-2.6,1.2-4.9,2.8-6.8,4.8-1.9,2-3.3,4.4-4.4,7.1-1,2.7-1.6,5.5-1.6,8.5s.5,5.8,1.6,8.5c1,2.7,2.5,5,4.4,7s4.1,3.7,6.8,4.8c2.6,1.2,5.5,1.8,8.7,1.8s4.9-.6,7.3-1.8c2.4-1.2,4.3-2.9,5.6-5v5.7h9.8v-42.1h-9.8s0,5.7,0,5.7ZM1017.2,438.9c-.6,1.6-1.4,3-2.5,4.2s-2.4,2.2-3.9,2.9-3.2,1.1-5.1,1.1-3.5-.4-5-1.1c-1.5-.7-2.8-1.7-3.9-2.9s-1.9-2.6-2.5-4.2c-.6-1.6-.9-3.3-.9-5.2s.3-3.5.9-5.2c.6-1.6,1.4-3,2.5-4.2s2.4-2.2,3.9-2.9c1.5-.7,3.2-1.1,5-1.1s3.5.4,5.1,1.1c1.5.7,2.8,1.7,3.9,2.9,1.1,1.2,1.9,2.6,2.5,4.2.6,1.6.9,3.3.9,5.2s-.3,3.5-.9,5.2Z"/>
    <path class="st3" d="M1135,391.5h-9.8v63.3h9.8v-63.3Z"/>
    <path class="st3" d="M956.2,454.8h9.8v-32.4h16.8v-9.7h-26.5v42.1h-.1Z"/>
    <path class="st3" d="M1067,412.7l-12.3,32.2-12.3-32.2h-9.9l16,42.1h12.3l16-42.1h-9.9,0Z"/>
    <path class="st3" d="M1098.2,411.6c-12,0-21.4,9.9-21.4,22.1s9.2,22.1,22.7,22.1,12.4-2.9,18.3-9.3l-6.6-5.1s-5,6.6-12.4,6.6-12.3-7-12.3-10.7h32.4c1.7-13.9-7.4-25.8-20.7-25.8h0ZM1086.5,430.1c0-.8,1.2-10.7,11.6-10.7s11.7,9.8,11.8,10.7h-23.4Z"/>
  </g>
  <g>
    <path class="st2" d="M67.8,18.2c0-.4-.4-.6-.7-.6s-5.8-.1-5.8-.1c0,0-4.7-4.5-5.1-5-.4-.4-1.3-.3-1.7-.2,0,0-.9.3-2.4.7-.2-.8-.6-1.7-1.1-2.7-1.6-3.1-4.1-4.8-7-4.8h-.6c-.1-.1-.2-.2-.3-.3-1.3-1.3-2.9-2-4.9-2-3.8.1-7.5,2.9-10.6,7.7-2.1,3.4-3.8,7.7-4.3,11-4.3,1.3-7.3,2.3-7.5,2.3-2.2.7-2.2.7-2.5,2.8-.1,1.6-5.8,45.8-5.8,45.8l48,8.3,20.8-5.2s-8.5-57.3-8.6-57.7h0ZM49.8,13.8c-1.1.3-2.4.7-3.7,1.2,0-1.9-.3-4.6-1.1-6.8,2.9.4,4.3,3.7,4.8,5.7h0ZM43.6,15.7c-2.5.8-5.3,1.6-8,2.5.8-3,2.2-5.9,4-7.8.7-.7,1.6-1.5,2.7-2,1.1,2.2,1.3,5.3,1.3,7.3ZM38.4,5.7c.9,0,1.6.2,2.2.6-1,.5-2,1.3-2.9,2.3-2.4,2.6-4.3,6.6-5,10.4-2.3.7-4.5,1.4-6.6,2,1.3-6.1,6.4-15.2,12.2-15.4Z"/>
    <g>
      <path class="st5" d="M67.2,17.6c-.3,0-5.8-.1-5.8-.1,0,0-4.7-4.5-5.1-5-.2-.2-.4-.3-.6-.3v68.9l20.8-5.2s-8.5-57.3-8.5-57.7c-.1-.4-.4-.6-.7-.6Z"/>
      <path class="st4" d="M44.1,28.3l-2.4,9s-2.7-1.2-5.9-1c-4.7.3-4.7,3.3-4.7,4,.3,4,10.9,4.9,11.5,14.4.4,7.5-3.9,12.6-10.3,12.9-7.6.4-11.8-4.1-11.8-4.1l1.6-6.9s4.3,3.2,7.6,3c2.2-.1,3-2,2.9-3.2-.3-5.3-9-4.9-9.5-13.6-.4-7.3,4.3-14.6,14.9-15.3,4.1-.3,6.2.8,6.2.8Z"/>
    </g>
  </g>
  <g>
    <path id="s1" data-name="s" class="st4" d="M104.6,47.5c-2.4-1.3-3.6-2.4-3.6-3.9s1.7-3.1,4.4-3.1,5.9,1.3,5.9,1.3l2.2-6.7s-2-1.6-8-1.6-14.1,4.8-14.1,11.4,2.7,6.7,6.3,8.7c2.9,1.6,3.9,2.8,3.9,4.5s-1.5,3.3-4.1,3.3c-4,0-7.8-2.1-7.8-2.1l-2.4,6.7s3.5,2.4,9.4,2.4c8.5,0,14.7-4.2,14.7-11.8s-3.1-7-6.8-9.1Z"/>
    <path id="h1" data-name="h" class="st4" d="M138.5,33.3c-4.2,0-7.5,2-10,5h-.1l3.6-19.1h-9.5l-9.2,48.5h9.5l3.1-16.6c1.2-6.3,4.5-10.1,7.5-10.1s3,1.5,3,3.5-.1,2.9-.4,4.2l-3.6,19h9.5l3.7-19.6c.4-2.1.7-4.5.7-6.2,0-5.4-2.7-8.6-7.7-8.6h0Z"/>
    <path id="o1" data-name="o" class="st4" d="M167.8,33.3c-11.4,0-19,10.3-19,21.8s4.5,13.3,13.1,13.3,18.8-10,18.8-21.8c0-6.8-3.9-13.3-12.8-13.3h0ZM163.1,61.2c-3.3,0-4.6-2.7-4.6-6.2,0-5.4,2.8-14.3,8-14.3s4.5,2.9,4.5,5.7c0,5.8-2.9,14.8-7.8,14.8h0Z"/>
    <path id="p1" data-name="p" class="st4" d="M204.9,33.3c-6.4,0-10,5.7-10,5.7h-.1l.6-5.1h-8.4c-.4,3.4-1.2,8.7-1.9,12.6l-6.6,34.7h9.5l2.6-14.1h.2s2,1.2,5.5,1.2c11.2,0,18.4-11.4,18.4-23s-2.9-12.1-9.8-12.1h0ZM195.8,61.3c-2.5,0-3.9-1.4-3.9-1.4l1.6-8.9c1.1-5.9,4.2-9.9,7.5-9.9s3.8,2.7,3.8,5.2c0,6.2-3.6,14.9-9,14.9h0Z"/>
    <path id="dot1" data-name="dot" class="st4" d="M228.3,19.7c-3,0-5.4,2.4-5.4,5.5s1.8,4.8,4.5,4.8h.1c3,0,5.5-2,5.5-5.5,0-2.7-1.8-4.8-4.7-4.8Z"/>
    <polygon id="i1" data-name="i" class="st4" points="215 67.7 224.5 67.7 230.9 34.1 221.4 34.1 215 67.7"/>
    <path id="f1" data-name="f" class="st4" d="M255.1,34h-6.6l.3-1.6c.6-3.3,2.5-6.1,5.7-6.1s3,.5,3,.5l1.8-7.5s-1.6-.8-5.2-.8-6.7,1-9.3,3.1c-3.3,2.7-4.8,6.7-5.5,10.8l-.3,1.6h-4.4l-1.4,7.2h4.4l-5,26.6h9.5l5-26.6h6.6l1.3-7.2h0Z"/>
    <path id="y1" data-name="y" class="st4" d="M277.9,34.1s-5.9,15-8.6,23.1h-.1c-.2-2.6-2.4-23.1-2.4-23.1h-10l5.7,30.9c.1.7,0,1.1-.2,1.6-1.1,2.1-3,4.2-5.2,5.7-1.8,1.3-3.8,2.1-5.4,2.7l2.6,8.1c1.9-.4,5.9-2,9.3-5.2,4.3-4,8.3-10.3,12.4-18.8l11.6-24.9h-9.9Z"/>
  </g>
  <g>
    <path id="path49901" data-name="path4990" class="st1" d="M483.9,30.2h11v6.1h-11v23.9c0,3,.5,5.1,1.6,6.3,1.1,1.2,2.6,1.7,4.4,1.7s1.8-.1,2.6-.4c.9-.3,1.6-.6,2.2-1l1.4,5.7c-2.2,1.3-4.7,2-7.2,2-4.1,0-7.1-1.1-9.2-3.4-2-2.3-3-6.1-3-11.4V18.6l7.1-1.2v12.9h0Z"/>
    <path id="path49921" data-name="path4992" class="st1" d="M522.8,37.6c-1.7-.8-3.8-1.2-6-1.2s-3.9.3-5.7,1.1v37.1h-7.1v-41.6c1.6-.8,3.4-1.4,5.4-1.9,2.1-.6,4.4-.8,6.9-.8s2.6,0,4,.2,2.6.4,3.7.9l-1.2,6.1h0Z"/>
    <path id="path49941" data-name="path4994" class="st1" d="M530.8,31.1c1.5-.6,3-1.1,4.5-1.4,1.6-.4,3.3-.6,5.2-.6,3.9,0,7,1.2,9.4,3.7,2.4,2.4,3.7,6.1,3.7,11.2v28.8c-2,.6-4,1-6.1,1.3-2,.3-4,.5-6.1.5s-3.9-.2-5.6-.7c-1.7-.5-3.3-1.3-4.5-2.4-1.3-1.1-2.3-2.5-3.1-4.2s-1.2-3.8-1.2-6.2.3-4.2,1-5.9c.7-1.7,1.7-3.1,2.9-4.2,1.2-1.2,2.6-2,4.3-2.6,1.6-.6,3.4-.9,5.4-.9s3.8.2,6.1.7v-4c0-3.2-.6-5.4-1.9-6.7-1.2-1.3-3-1.9-5.3-1.9s-2.5.1-3.7.4c-1.1.2-2.3.6-3.5,1.2l-1.5-6.1h0ZM534.2,61.1c0,2.5.7,4.4,2,5.6,1.3,1.2,3.2,1.8,5.6,1.8s3.1-.2,4.9-.6v-13.8c-1.6-.4-3.3-.7-4.9-.7s-2,.1-3,.4c-1,.2-1.7.6-2.5,1.2-.7.6-1.2,1.3-1.6,2.3-.4,1-.6,2.1-.6,3.7h0Z"/>
    <path id="path49961" data-name="path4996" class="st1" d="M579.5,74.6c-3,0-5.4-.6-7.5-1.7-2-1.2-3.6-2.8-4.9-4.7-1.2-2-2.1-4.4-2.6-7.2-.5-2.8-.7-5.8-.7-9,0-7.2,1.3-12.8,3.9-16.8,2.6-4.1,6.6-6.1,11.9-6.1s3,.2,4.3.6,2.5.9,3.5,1.5l-1.8,5.9c-1.7-1.1-3.6-1.6-5.7-1.6s-5.2,1.3-6.6,4c-1.4,2.7-2.1,6.9-2.1,12.6s.1,4.6.4,6.6c.3,2,.7,3.7,1.4,5.1.7,1.5,1.6,2.6,2.8,3.4,1.2.8,2.6,1.2,4.4,1.2s2.3-.1,3.3-.4c1-.3,1.9-.7,2.8-1.2l1.6,5.6c-.9.6-2.1,1.2-3.5,1.6-1.5.5-3,.7-4.7.7Z"/>
    <path id="path49981" data-name="path4998" class="st1" d="M600.1,53.9c0,2.1.2,4,.6,5.8.3,1.7.8,3.3,1.6,4.5.8,1.3,1.7,2.2,3,3,1.3.7,2.9,1.1,4.8,1.1s3.1-.2,4.4-.7c1.4-.5,2.4-.9,3-1.2l1.3,5.7c-.7.5-1.9,1-3.7,1.6-1.6.6-3.7.9-6,.9s-5.6-.6-7.7-1.6c-2-1.1-3.7-2.6-5.1-4.7-1.3-2-2.2-4.4-2.8-7.1-.6-2.8-.8-5.8-.8-9.1,0-8,1.3-13.9,4-17.6,2.6-3.7,6.2-5.6,10.5-5.6s8.4,1.9,10.4,5.6c2,3.7,3.1,8.9,3.1,15.6v1.9c0,.6,0,1.2,0,1.9h-20.7ZM607.3,35.1c-2.4,0-4.1,1.2-5.2,3.5-1.1,2.4-1.7,5.6-1.9,9.5h13.1c0-4-.4-7.2-1.2-9.5s-2.4-3.5-4.8-3.5h0Z"/>
    <path id="path50001" data-name="path5000" class="st1" d="M651.5,36.5c-1.2,2-2.6,4.5-4.2,7.3s-3.1,5.7-4.7,8.7c-1.5,2.9-2.9,5.8-4.3,8.7-1.3,2.8-2.4,5.3-3.3,7.4h16.9v6.1h-24.3v-5.1c.9-2.4,2-5.1,3.4-8.1,1.4-3,2.8-6,4.3-8.9,1.6-3,3-5.8,4.5-8.4,1.5-2.7,2.8-4.9,3.8-6.7h-15v-6.1h22.7v5.3h0Z"/>
    <path id="path50021" data-name="path5002" class="st1" d="M668.3,74.6h-7.1V31.1h7.1v43.5ZM664.7,23.4c-1.3,0-2.4-.4-3.3-1.2-.9-.9-1.3-2-1.3-3.5s.4-2.6,1.3-3.4c1-.9,2-1.3,3.3-1.3s2.4.4,3.3,1.3c1,.8,1.4,2,1.4,3.4s-.4,2.6-1.4,3.5c-.9.8-2,1.2-3.3,1.2Z"/>
    <path id="path50041" data-name="path5004" class="st1" d="M692.7,74.6c-4.1-.1-7-1.1-8.8-3-1.7-1.9-2.6-4.9-2.6-9.1V10.7l7.1-1.2v53.2c0,1.9.4,3.3,1.2,4.2.8.8,2.1,1.4,4,1.7l-.9,6h0Z"/>
    <path id="path50061" data-name="path5006" class="st1" d="M713,74.6c-4.1-.1-7-1.1-8.8-3-1.7-1.9-2.6-4.9-2.6-9.1V10.7l7.1-1.2v53.2c0,1.9.4,3.3,1.2,4.2.8.8,2.1,1.4,4,1.7l-.9,6h0Z"/>
    <path id="path50081" data-name="path5008" class="st1" d="M722.6,31.1c1.5-.6,3-1.1,4.5-1.4,1.6-.4,3.3-.6,5.2-.6,3.9,0,7,1.2,9.4,3.7,2.4,2.4,3.7,6.1,3.7,11.2v28.8c-2,.6-4,1-6.1,1.3-2,.3-4,.5-6.1.5s-3.9-.2-5.6-.7c-1.7-.5-3.3-1.3-4.5-2.4-1.3-1.1-2.3-2.5-3.1-4.2s-1.2-3.8-1.2-6.2.3-4.2,1-5.9c.7-1.7,1.7-3.1,2.9-4.2,1.2-1.2,2.6-2,4.3-2.6,1.6-.6,3.4-.9,5.4-.9s3.8.2,6.1.7v-4c0-3.2-.6-5.4-1.9-6.7-1.2-1.3-3-1.9-5.3-1.9s-2.5.1-3.7.4c-1.1.2-2.3.6-3.5,1.2l-1.5-6.1h0ZM726,61.1c0,2.5.7,4.4,2,5.6s3.2,1.8,5.6,1.8,3.1-.2,4.9-.6v-13.8c-1.6-.4-3.3-.7-4.9-.7s-2,.1-3,.4c-1,.2-1.7.6-2.5,1.2-.7.6-1.2,1.3-1.6,2.3-.4,1-.6,2.1-.6,3.7h0Z"/>
  </g>
  <g>
    <path class="st3" d="M321.9,30.5h-5.2v31.7h14.9v-4.6h-9.7v-27Z"/>
    <path class="st3" d="M349.8,44c-.7-1.1-1.6-1.9-2.8-2.5-1.2-.6-2.5-.9-3.6-.9s-3,.3-4.4.9c-1.3.6-2.5,1.4-3.4,2.4-1,1-1.6,2.2-2.2,3.5-.5,1.4-.8,2.8-.8,4.2s.2,2.9.8,4.2c.5,1.4,1.2,2.5,2.2,3.5s2,1.9,3.4,2.4c1.3.6,2.8.9,4.4.9s2.5-.3,3.6-.9c1.2-.6,2.2-1.5,2.8-2.5v2.9h4.9v-21.1h-4.9s0,2.9,0,2.8ZM349.3,54.2c-.3.8-.7,1.5-1.2,2.1s-1.2,1.1-2,1.5-1.6.5-2.5.5-1.8-.2-2.5-.5c-.8-.4-1.4-.9-2-1.5-.5-.6-1-1.3-1.2-2.1-.3-.8-.5-1.6-.5-2.6s.1-1.8.5-2.6c.3-.8.7-1.5,1.2-2.1s1.2-1.1,2-1.4c.8-.4,1.6-.6,2.5-.6s1.8.2,2.5.6c.8.4,1.4.8,2,1.4.5.6,1,1.3,1.2,2.1.3.8.5,1.6.5,2.6s-.2,1.8-.5,2.6Z"/>
    <path class="st3" d="M389.5,44c-.7-1.1-1.6-1.9-2.8-2.5-1.2-.6-2.4-.9-3.7-.9s-3,.3-4.3.9c-1.3.6-2.5,1.4-3.4,2.4-1,1-1.7,2.2-2.2,3.5-.5,1.4-.8,2.8-.8,4.2s.2,2.9.8,4.2c.5,1.4,1.2,2.5,2.2,3.5s2,1.9,3.4,2.4c1.3.6,2.8.9,4.3.9s2.4-.3,3.7-.9c1.2-.6,2.2-1.5,2.8-2.5v2.9h4.9v-21.1h-4.9s0,2.9,0,2.8ZM389,54.2c-.3.8-.7,1.5-1.2,2.1s-1.2,1.1-1.9,1.5-1.6.5-2.6.5-1.8-.2-2.5-.5c-.8-.4-1.4-.9-2-1.5s-1-1.3-1.2-2.1c-.3-.8-.5-1.6-.5-2.6s.2-1.8.5-2.6c.3-.8.7-1.5,1.2-2.1s1.2-1.1,2-1.4c.8-.4,1.6-.6,2.5-.6s1.8.2,2.6.6c.8.4,1.4.8,1.9,1.4.6.6.9,1.3,1.2,2.1.3.8.4,1.6.4,2.6s-.2,1.8-.4,2.6Z"/>
    <path class="st3" d="M447.9,30.5h-4.9v31.7h4.9v-31.7Z"/>
    <path class="st3" d="M358.5,62.2h4.9v-16.2h8.4v-4.8h-13.2v21.1h0Z"/>
    <path class="st3" d="M413.9,41.1l-6.2,16.1-6.2-16.1h-4.9l8,21.1h6.2l8-21h-4.9,0Z"/>
    <path class="st3" d="M429.5,40.6c-6,0-10.7,4.9-10.7,11.1s4.6,11.1,11.3,11.1,6.2-1.5,9.2-4.6l-3.3-2.5s-2.5,3.3-6.2,3.3-6.2-3.5-6.2-5.4h16.2c.8-7-3.7-12.9-10.3-12.9h0ZM423.7,49.8c0-.4.6-5.4,5.8-5.4s5.8,4.9,5.9,5.4h-11.7Z"/>
  </g>
</svg>