<?xml version="1.0" encoding="UTF-8"?>
<svg id="svg2" xmlns="http://www.w3.org/2000/svg" xmlns:svg="http://www.w3.org/2000/svg" xmlns:sodipodi="http://sodipodi.sourceforge.net/DTD/sodipodi-0.dtd" xmlns:rdf="http://www.w3.org/1999/02/22-rdf-syntax-ns#" xmlns:inkscape="http://www.inkscape.org/namespaces/inkscape" xmlns:dc="http://purl.org/dc/elements/1.1/" xmlns:cc="http://creativecommons.org/ns#" version="1.1" viewBox="0 0 62.8 15.2">
  <!-- Generator: Adobe Illustrator 29.3.1, SVG Export Plug-In . SVG Version: 2.1.0 Build 151)  -->
  <defs>
    <style>
      .st0 {
        fill: none;
      }

      .st1 {
        fill: #102f6f;
      }

      .st1, .st2, .st3 {
        fill-opacity: .9;
      }

      .st2, .st3 {
        fill: #f7a10a;
      }

      .st3 {
        isolation: isolate;
        opacity: .5;
      }
    </style>
  </defs>
  <path id="path840-3-6-5-5" class="st0" d="M-179.5-321.9" inkscape:connector-curvature="0"/>
  <path id="path4990" class="st1" d="M-65-102h2.6v1.4h-2.6v5.6c0,.7.1,1.2.4,1.5.3.3.6.4,1,.4s.4,0,.6,0c.2,0,.4-.1.5-.2l.3,1.3c-.5.3-1.1.5-1.7.5-1,0-1.7-.3-2.1-.8-.5-.5-.7-1.4-.7-2.7v-9.6l1.7-.3v3Z" inkscape:connector-curvature="0"/>
  <path id="path4992" class="st1" d="M-55.9-100.3c-.4-.2-.9-.3-1.4-.3s-.9,0-1.3.3v8.7h-1.7v-9.7c.4-.2.8-.3,1.3-.4.5-.1,1-.2,1.6-.2s.6,0,.9,0,.6.1.9.2l-.3,1.4Z" inkscape:connector-curvature="0"/>
  <path id="path4994" class="st1" d="M-54-101.8c.3-.1.7-.3,1.1-.3.4,0,.8-.1,1.2-.1.9,0,1.6.3,2.2.9.6.6.9,1.4.9,2.6v6.7c-.5.1-.9.2-1.4.3-.5,0-.9.1-1.4.1s-.9,0-1.3-.2c-.4-.1-.8-.3-1.1-.6-.3-.3-.5-.6-.7-1-.2-.4-.3-.9-.3-1.5s0-1,.2-1.4c.2-.4.4-.7.7-1,.3-.3.6-.5,1-.6.4-.1.8-.2,1.3-.2s.9,0,1.4.2v-.9c0-.7-.1-1.3-.4-1.6-.3-.3-.7-.4-1.2-.4s-.6,0-.9,0c-.3,0-.5.1-.8.3l-.3-1.4ZM-53.2-94.8c0,.6.2,1,.5,1.3.3.3.7.4,1.3.4s.7,0,1.1-.1v-3.2c-.4-.1-.8-.2-1.1-.2s-.5,0-.7,0c-.2,0-.4.1-.6.3-.2.1-.3.3-.4.5,0,.2-.1.5-.1.9h0Z" inkscape:connector-curvature="0"/>
  <path id="path4996" class="st1" d="M-42.7-91.6c-.7,0-1.3-.1-1.7-.4-.5-.3-.8-.6-1.1-1.1-.3-.5-.5-1-.6-1.7-.1-.6-.2-1.3-.2-2.1,0-1.7.3-3,.9-3.9.6-1,1.5-1.4,2.8-1.4s.7,0,1,.1c.3,0,.6.2.8.3l-.4,1.4c-.4-.3-.8-.4-1.3-.4-.7,0-1.2.3-1.5.9-.3.6-.5,1.6-.5,2.9s0,1.1,0,1.5c0,.5.2.9.3,1.2.2.3.4.6.6.8.3.2.6.3,1,.3s.5,0,.8,0c.2,0,.5-.2.7-.3l.4,1.3c-.2.1-.5.3-.8.4-.3.1-.7.2-1.1.2Z" inkscape:connector-curvature="0"/>
  <path id="path4998" class="st1" d="M-37.8-96.5c0,.5,0,.9.1,1.4,0,.4.2.8.4,1.1.2.3.4.5.7.7.3.2.7.3,1.1.3s.7,0,1-.2c.3-.1.6-.2.7-.3l.3,1.3c-.2.1-.5.2-.9.4-.4.1-.9.2-1.4.2s-1.3-.1-1.8-.4c-.5-.3-.9-.6-1.2-1.1-.3-.5-.5-1-.6-1.7-.1-.6-.2-1.4-.2-2.1,0-1.9.3-3.2.9-4.1.6-.9,1.4-1.3,2.5-1.3s2,.4,2.4,1.3.7,2.1.7,3.6v.4c0,.1,0,.3,0,.4h-4.8ZM-36.2-100.9c-.6,0-1,.3-1.2.8-.2.6-.4,1.3-.4,2.2h3.1c0-.9,0-1.7-.3-2.2-.2-.6-.6-.8-1.1-.8Z" inkscape:connector-curvature="0"/>
  <path id="path5000" class="st1" d="M-25.8-100.5c-.3.5-.6,1-1,1.7-.4.7-.7,1.3-1.1,2-.3.7-.7,1.4-1,2-.3.7-.6,1.2-.8,1.7h3.9v1.4h-5.7v-1.2c.2-.6.5-1.2.8-1.9.3-.7.7-1.4,1-2.1.4-.7.7-1.4,1-2,.3-.6.6-1.2.9-1.6h-3.5v-1.4h5.3v1.2Z" inkscape:connector-curvature="0"/>
  <path id="path5002" class="st1" d="M-21.9-91.6h-1.7v-10.2h1.7v10.2ZM-22.7-103.6c-.3,0-.6,0-.8-.3-.2-.2-.3-.5-.3-.8,0-.3.1-.6.3-.8.2-.2.5-.3.8-.3s.5.1.8.3c.2.2.3.5.3.8s-.1.6-.3.8c-.2.2-.5.3-.8.3Z" inkscape:connector-curvature="0"/>
  <path id="path5004" class="st1" d="M-16.2-91.6c-1,0-1.6-.3-2.1-.7-.4-.5-.6-1.2-.6-2.1v-12.1l1.7-.3v12.4c0,.5,0,.8.3,1,.2.2.5.3.9.4l-.2,1.4Z" inkscape:connector-curvature="0"/>
  <path id="path5006" class="st1" d="M-11.5-91.6c-1,0-1.6-.3-2.1-.7-.4-.5-.6-1.2-.6-2.1v-12.1l1.7-.3v12.4c0,.5,0,.8.3,1,.2.2.5.3.9.4l-.2,1.4Z" inkscape:connector-curvature="0"/>
  <path id="path5008" class="st1" d="M-9.2-101.8c.3-.1.7-.3,1.1-.3.4,0,.8-.1,1.2-.1.9,0,1.6.3,2.2.9.6.6.9,1.4.9,2.6v6.7c-.5.1-.9.2-1.4.3-.5,0-.9.1-1.4.1s-.9,0-1.3-.2c-.4-.1-.8-.3-1.1-.6-.3-.3-.5-.6-.7-1-.2-.4-.3-.9-.3-1.5s0-1,.2-1.4c.2-.4.4-.7.7-1,.3-.3.6-.5,1-.6.4-.1.8-.2,1.3-.2s.9,0,1.4.2v-.9c0-.7-.1-1.3-.4-1.6-.3-.3-.7-.4-1.2-.4s-.6,0-.9,0c-.3,0-.5.1-.8.3l-.3-1.4ZM-8.4-94.8c0,.6.2,1,.5,1.3s.7.4,1.3.4.7,0,1.1-.1v-3.2c-.4-.1-.8-.2-1.1-.2s-.5,0-.7,0c-.2,0-.4.1-.6.3-.2.1-.3.3-.4.5,0,.2-.1.5-.1.9h0Z" inkscape:connector-curvature="0"/>
  <rect id="path840-3-6" class="st3" x="-46" y="-39"/>
  <rect id="path840-3-6-5-3" class="st3" x="-43.5" y="-40.3"/>
  <path id="path840-3-6-5-5-3" class="st2" d="M-179.5-321.9" inkscape:connector-curvature="0"/>
  <rect id="path840-3-6-0" class="st3" x="7.8" y="-35.2"/>
</svg>